<?xml version="1.0" standalone="no"?>
<!DOCTYPE svg PUBLIC "-//W3C//DTD SVG 20010904//EN"
 "http://www.w3.org/TR/2001/REC-SVG-20010904/DTD/svg10.dtd">
<svg version="1.0" xmlns="http://www.w3.org/2000/svg"
 width="672.000000pt" height="672.000000pt" viewBox="0 0 672.000000 672.000000"
 preserveAspectRatio="xMidYMid meet">
<metadata>
Created by potrace 1.11, written by Peter Selinger 2001-2013
</metadata>
<g transform="translate(0.000000,672.000000) scale(0.100000,-0.100000)"
fill="#000000" stroke="none">
<path d="M2823 6467 c-4 -7 -24 -24 -43 -37 -19 -14 -44 -32 -54 -42 -11 -10
-23 -18 -27 -18 -4 0 -14 -6 -21 -13 -7 -7 -25 -21 -39 -32 -150 -114 -181
-135 -196 -135 -16 0 -142 39 -361 111 -82 27 -83 27 -77 6 6 -20 87 -281 122
-388 l14 -46 -86 -114 c-48 -63 -96 -127 -108 -143 -12 -16 -35 -45 -50 -65
-59 -74 -66 -70 116 -65 89 2 196 6 237 8 l75 4 45 -64 c225 -322 228 -326
235 -302 3 13 10 32 15 43 5 11 16 45 25 75 9 30 20 64 25 75 5 11 24 67 41
124 18 58 40 111 49 119 10 8 104 43 211 78 107 35 195 64 197 65 1 1 5 2 10
3 4 1 13 5 20 9 12 8 -8 24 -228 174 -47 32 -87 60 -90 64 -3 3 -16 12 -29 18
l-23 13 7 186 c3 103 7 213 8 245 3 56 -4 70 -20 44z"/>
<path d="M859 5978 c-24 -18 -50 -37 -56 -43 -7 -5 -23 -18 -35 -27 -13 -9
-49 -37 -80 -62 -32 -25 -60 -46 -63 -46 -3 0 -18 -11 -33 -26 -30 -28 -62
-27 -144 5 -16 6 -28 8 -28 5 0 -2 -9 0 -20 6 -24 13 -251 82 -255 78 -1 -2
15 -57 37 -123 97 -302 92 -281 75 -301 -58 -71 -247 -325 -247 -333 0 -5 10
-8 23 -6 12 2 98 6 191 10 93 3 171 7 175 9 21 12 60 -30 161 -178 63 -91 117
-166 120 -166 3 0 37 93 75 207 l70 207 209 70 c208 70 208 70 185 88 -13 10
-28 21 -34 26 -5 4 -41 29 -80 55 -38 25 -101 68 -140 95 -80 55 -72 16 -61
310 4 94 5 172 3 172 -2 0 -23 -15 -48 -32z"/>
<path d="M3728 5725 c-2 -1 -37 -5 -78 -9 -138 -11 -138 -10 27 -95 81 -43
170 -90 197 -105 66 -37 283 -175 299 -189 6 -7 31 -25 55 -41 64 -44 174
-154 215 -216 40 -60 81 -154 92 -210 14 -68 13 -227 -1 -295 -35 -168 -134
-387 -236 -526 -34 -46 -65 -86 -68 -89 -3 -3 -25 -30 -50 -60 -24 -30 -81
-93 -126 -140 -157 -163 -181 -190 -181 -204 0 -9 124 -140 275 -292 l274
-277 71 71 c105 103 157 149 202 180 22 15 45 32 50 39 23 26 203 136 308 187
214 104 377 136 480 93 133 -54 216 -116 251 -187 9 -19 25 -70 36 -113 23
-91 56 -154 105 -195 10 -9 49 -46 85 -81 82 -79 100 -87 137 -58 15 12 124
116 241 232 117 115 217 212 222 213 6 2 10 8 10 12 0 5 14 24 30 42 53 58 31
110 -105 243 -73 72 -121 97 -210 111 -62 9 -159 60 -199 104 -20 22 -48 66
-63 98 -14 31 -30 65 -34 74 -5 10 -9 23 -9 30 0 33 -131 292 -160 318 -3 3
-21 25 -40 50 -75 97 -438 449 -589 570 -24 19 -48 40 -55 45 -6 6 -33 28 -61
50 -27 22 -55 45 -62 50 -28 23 -40 32 -73 55 -19 13 -37 27 -40 30 -10 10
-186 128 -240 160 -109 65 -126 74 -220 121 -214 105 -445 174 -650 194 -30 3
-67 7 -82 9 -15 2 -29 2 -30 1z"/>
<path d="M1679 4905 c-3 -2 -16 -7 -30 -9 -13 -2 -25 -5 -26 -7 -2 -1 -6 -2
-10 -4 -44 -12 -138 -76 -175 -119 -27 -32 -71 -107 -86 -146 -20 -54 -26
-169 -13 -230 27 -127 33 -134 505 -605 296 -296 454 -446 481 -459 22 -10 47
-22 55 -26 9 -4 35 -11 58 -15 l42 -7 -16 -30 c-9 -18 -13 -40 -9 -58 4 -19
84 -106 258 -280 l251 -251 -86 -82 c-118 -113 -367 -351 -728 -697 -100 -96
-202 -193 -225 -215 -23 -22 -127 -121 -231 -221 -104 -100 -231 -221 -282
-270 -107 -102 -124 -127 -115 -177 4 -30 43 -73 258 -288 139 -139 264 -258
277 -265 29 -16 63 -17 91 -3 21 11 93 83 299 299 117 123 430 450 488 510 25
26 115 120 200 210 85 89 182 190 215 225 33 34 136 142 229 239 l169 176 838
-838 c460 -460 850 -848 866 -862 17 -15 41 -25 61 -26 31 -1 55 21 299 265
270 270 294 300 271 345 -6 11 -397 407 -869 879 -552 553 -856 863 -853 872
3 8 32 42 65 76 32 34 60 68 60 75 3 37 2 51 -5 71 -4 13 -100 115 -212 228
-163 163 -212 206 -239 211 -32 6 -74 -2 -85 -15 -3 -3 -33 -32 -66 -64 l-60
-57 -265 264 c-253 252 -267 265 -298 261 -18 -2 -39 -9 -46 -15 -16 -13 -22
-4 -30 37 -9 55 -45 126 -90 178 -33 38 -769 777 -828 831 -26 23 -106 65
-153 79 -45 14 -194 21 -205 10z m1679 -1868 c-227 -219 -273 -263 -285 -270
-8 -5 -95 75 -239 219 l-226 227 50 49 c27 26 66 55 86 63 47 20 146 119 171
171 10 21 39 60 64 86 l46 48 233 -233 233 -232 -133 -128z m1509 -1249 c458
-458 833 -836 833 -841 0 -4 -92 -100 -204 -213 l-204 -205 -831 831 c-457
456 -832 834 -834 839 -1 5 75 89 170 187 94 99 182 191 195 206 13 15 27 27
33 27 5 1 385 -374 842 -831z"/>
<path d="M950 3594 c-96 -74 -178 -134 -182 -134 -4 0 -17 4 -30 9 -13 5 -77
26 -143 46 -66 20 -144 45 -173 55 -59 21 -61 18 -38 -52 15 -45 94 -302 102
-328 3 -12 -117 -182 -194 -275 -9 -11 -30 -37 -45 -58 l-28 -38 170 6 c94 4
191 8 215 10 24 1 47 0 53 -4 5 -3 56 -73 113 -156 58 -82 108 -151 112 -153
5 -2 8 -10 8 -18 0 -43 22 8 84 194 l69 209 176 58 c97 32 191 65 209 72 l34
14 -34 24 c-18 14 -41 28 -50 31 -10 4 -18 10 -18 14 0 4 -13 13 -30 20 -16 7
-30 16 -30 19 0 6 -31 29 -149 106 -33 22 -37 32 -35 90 1 33 5 131 8 218 4
86 5 157 4 156 -2 0 -82 -61 -178 -135z"/>
</g>
</svg>
